<svg xmlns="http://www.w3.org/2000/svg" width="600" height="400" viewBox="0 0 158.75 105.8333">
  <path fill="#bcf8f9" d="M.0755-.2053h158.7313v106.063H.0755z"/>
  <path d="M81.1448 84.3786c.0176-4.3116-.1131-10.7-.2904-14.1964-.2289-4.5117-.2086-6.4944.0698-6.83.2506-.3019.5908-6.1049.942-16.067.8503-24.126.8526-22.8226-.042-23.7172-1.0262-1.0262-3.2256-1.0174-4.9038.0197-1.5867.9806-2.9393 3.6716-3.442 6.8473-.9662 6.1058.5185 31.8 1.9185 33.2.7206.7206.7516-.1474-.3641 10.2133-.8437 7.8343-.9056 9.2586-.5692 13.0958.2231 2.5448.2457 4.4415.0553 4.638-.4133.4268-4.1434-.2522-7.8931-1.4367-2.2917-.724-2.8724-1.0523-2.9904-1.691-.6984-3.7808-2.0607-17.8615-2.0656-21.3514-.0075-5.2494.3406-6.4607 2.5808-8.9798 2.671-3.0034 2.734-3.4867 1.9922-15.2786-.3481-5.5347-.7098-10.1874-.8037-10.3393-.094-.152-.4034-.2763-.6878-.2763-.4376 0-.517 1.5123-.517 9.8455 0 9.4987-.1591 10.9855-1.0723 10.018-.1607-.1703-.4739-4.5844-.696-9.8092-.222-5.2248-.5609-9.6567-.7529-9.8487-.8844-.8844-1.1058.7638-1.3505 10.0525-.2168 8.2297-.3338 9.6546-.7925 9.6546-.459 0-.5745-1.4206-.7847-9.6467-.2382-9.3228-.4593-10.9595-1.3591-10.0597-.1925.1925-.529 4.6244-.748 9.8488-.2188 5.2243-.5317 9.6381-.6952 9.8084-.9317.9706-1.0985-.4565-1.0768-9.2175.0122-4.9673.0172-9.3947.011-9.8387-.0109-.7726-.8454-1.131-1.2204-.5242-.0963.1557-.4584 4.905-.8047 10.5539-.7269 11.8565-.7152 11.9447 1.9963 15.0991.9819 1.1422 1.9516 2.676 2.155 3.4085.6065 2.1836.4259 9.9994-.376 16.2739-.4124 3.2271-.8893 6.0134-1.0598 6.1918-.7578.793-6.9642-5.2988-9.9115-9.7284-6.8136-10.2402-8.387-22.8546-4.2828-34.3375 2.0156-5.6395 4.57-9.6985 8.9206-14.1752 6.0954-6.272 14.1178-10.378 22.87-11.7051 13.1802-1.9985 26.3333 2.3472 35.4277 11.7051 4.3505 4.4767 6.905 8.5357 8.9205 14.1752 4.9605 13.8787 1.4937 29.4998-8.8696 39.9665-2.9673 2.9968-6.7639 5.9041-7.1733 5.493-.4646-.4665-1.786-11.4128-2.0081-16.6348-.2712-6.3744.0963-7.9543 2.4823-10.6743 2.0013-2.2814 2.56-3.2384 3.579-6.1302 1.0095-2.8646 1.2694-8.5192.5248-11.4173-1.613-6.2783-5.7065-10.871-9.2639-10.3939-1.8914.2537-3.6774 1.697-5.5821 4.5109-2.1207 3.1328-2.9682 6.1065-2.9682 10.4145 0 5.5245 1.3388 9.4116 4.4468 12.911.8672.9764 1.7955 2.3945 2.0631 3.1515.7857 2.2228.549 10.3455-.5404 18.5475-.5206 3.9189-.9465 7.7477-.9465 8.5086 0 1.003-.1918 1.486-.6977 1.7568-1.0368.5549-6.3196 1.7238-9.0215 1.9962l-2.364.2383.032-7.8392z" fill="#65edee"/>
</svg>
