<svg xmlns="http://www.w3.org/2000/svg" width="237.62" height="237.62" viewBox="0 0 62.87 62.87">
  <g transform="translate(-99.411 -169.322)" style="display:inline">
    <circle style="display:inline;fill:#6dfbfb;fill-opacity:1;fill-rule:evenodd;stroke:#111818;stroke-width:2.5;stroke-linecap:square;stroke-miterlimit:0;stroke-dasharray:none;stroke-opacity:1;paint-order:markers fill stroke" cx="130.846" cy="200.757" r="30.185"/>
    <path d="M149.316 184.587c0-3.594-2.24-6.305-6.66-8.25-3.359-1.473-7.13-2.18-11.197-2.18-7.307 0-12.788 1.826-16.441 5.48-1.592 1.591-2.476 3.182-2.652 4.715a5.712 5.712 0 0 0-.177 1.355c0 1.12.412 2.18 1.296 3.064 1.238 1.238 2.77 1.886 4.656 1.886 3.83 0 7.838-2.71 9.724-6.246.53-1.002.648-1.827.471-2.476-.295-.942-1.002-1.414-2.18-1.414-1.474 0-2.652.707-3.595 2.063-.53.766-.59 1.355-.118 1.65.236-.884 1.709-1.71 2.652-1.71.53 0 .825.236 1.002.708.059.177-.06.471-.236.884-1.238 2.534-4.066 4.36-6.836 4.36-.413 0-.943-.058-1.473-.235-1.533-.412-2.299-1.355-2.299-2.71 0-1.71 1.061-3.36 3.183-4.951 2.71-2.004 6.129-3.241 10.195-3.654a31.587 31.587 0 0 1 7.072.06c6.128.765 9.31 2.946 9.605 6.54.177 2.004-1.001 4.067-3.418 6.247-3.359 3.006-7.425 4.833-12.08 5.363l4.184-7.838c2.416-4.36 4.596-7.248 6.6-8.663-.707-.177-1.473-.294-2.24-.412-.648.176-1.296.412-1.885.707-2.24 1.179-4.538 3.713-6.836 7.543l-3.183 5.834c-1.414 2.652-2.593 4.656-3.477 6.011-2.887 4.302-6.129 6.66-9.841 6.954-2.593.177-4.597-.353-6.011-1.709-1.061-1.002-1.591-2.18-1.591-3.654 0-1.826.707-3.359 2.062-4.655 1.415-1.356 3.006-1.945 4.833-1.827 1.709.059 3.24 1.002 4.714 2.829.236-2.652-1.768-4.42-4.538-4.833-1.237-.176-2.357-.059-3.418.354-4.007 1.591-6.01 4.302-6.01 8.191 0 2.004.765 3.713 2.239 5.127.294.767 1.59 1.415 3.771 1.945 1.768.413 3.772.53 5.952.295 2.24-.236 4.126-.766 5.599-1.65 2.77-1.591 5.48-4.538 8.133-8.958.53.118.942.177 1.178.177 1.768.295 2.711.707 2.888 1.355.059.295 0 .59-.118 1.002-2.063 4.774-3.065 9.252-3.065 13.437 0 3.653.767 6.659 2.24 9.075 1.827 2.947 4.42 4.302 7.897 4.125a9.148 9.148 0 0 0 4.596-1.414c1.474-.825 2.18-1.768 2.18-2.829 0-.294-.058-.59-.117-.884-1.532 1.945-3.713 2.888-6.483 2.888-2.592 0-4.537-1.238-5.775-3.713-1.002-1.945-1.473-4.302-1.473-7.13 0-1.945.236-3.89.707-5.835.825-2.475 1.473-4.243 2.004-5.304.353-.884.412-1.65.235-2.357-.353-1.178-1.12-2.121-2.298-2.77v-.117h.118l-.236-.177.06.059-.06-.06c2.947-.53 5.717-1.531 8.369-2.887 5.068-2.652 7.602-5.54 7.602-8.78z" style="font-style:normal;font-variant:normal;font-weight:400;font-stretch:normal;font-size:58.9315px;line-height:1.25;font-family:'Blessed Day';-inkscape-font-specification:'Blessed Day, Normal';font-variant-ligatures:normal;font-variant-caps:normal;font-variant-numeric:normal;font-variant-east-asian:normal;display:inline;opacity:1;fill:#111818;fill-opacity:1;stroke-width:3.15703"/>
  </g>
</svg>
