<svg xmlns="http://www.w3.org/2000/svg" width="225.888" height="225.888" viewBox="0 0 59.766 59.766">
  <g transform="translate(-99.411 -167.735)" style="display:inline">
    <circle style="display:inline;fill:#6dfbfb;fill-opacity:1;fill-rule:evenodd;stroke:#111818;stroke-width:2.5;stroke-linecap:square;stroke-miterlimit:0;stroke-dasharray:none;stroke-opacity:1;paint-order:markers fill stroke" cx="129.294" cy="197.618" r="28.633"/>
    <path d="M149.685 184.587c0-3.594-2.24-6.305-6.66-8.25-3.359-1.473-7.13-2.18-11.197-2.18-7.307 0-12.788 1.826-16.442 5.48-1.59 1.591-2.475 3.182-2.651 4.715a5.712 5.712 0 0 0-.177 1.355c0 1.12.412 2.18 1.296 3.064 1.238 1.238 2.77 1.886 4.656 1.886 3.83 0 7.838-2.71 9.723-6.246.53-1.002.649-1.827.472-2.476-.295-.942-1.002-1.414-2.18-1.414-1.474 0-2.652.707-3.595 2.063-.53.766-.59 1.355-.118 1.65.236-.884 1.709-1.71 2.652-1.71.53 0 .825.236 1.002.708.058.177-.06.471-.236.884-1.238 2.534-4.066 4.36-6.836 4.36-.413 0-.943-.058-1.474-.235-1.532-.412-2.298-1.355-2.298-2.71 0-1.71 1.06-3.36 3.182-4.951 2.711-2.004 6.13-3.241 10.196-3.654a31.587 31.587 0 0 1 7.071.06c6.13.765 9.312 2.946 9.606 6.54.177 2.004-1.002 4.067-3.418 6.247-3.359 3.006-7.425 4.833-12.08 5.363l4.183-7.838c2.417-4.36 4.597-7.248 6.6-8.663-.706-.177-1.473-.294-2.239-.412-.648.176-1.296.412-1.886.707-2.239 1.179-4.537 3.713-6.836 7.543l-3.182 5.834c-1.414 2.652-2.593 4.656-3.477 6.011-2.887 4.302-6.129 6.66-9.841 6.954-2.593.177-4.701-.197-6.116-1.552-1.06-1.002-1.59-2.18-1.59-3.654 0-1.827.81-3.516 2.166-4.812 1.414-1.356 3.006-1.945 4.832-1.827 1.71.059 3.242 1.002 4.715 2.829.236-2.652-1.768-4.42-4.538-4.833-1.237-.176-2.357-.059-3.418.354-4.007 1.591-6.01 4.302-6.01 8.191 0 2.004.661 3.87 2.134 5.284 1.37 1.315 2.356 1.79 3.7 2.231 1.957.642 4.127.476 6.128.21 1.929-.256 3.95-.975 5.599-2.008 3.416-2.143 5.48-4.538 8.132-8.958.53.118.943.177 1.179.177 1.768.295 2.71.707 2.888 1.355.059.295.048.607-.118 1.002-2.016 4.794-3.008 6.28-3.197 9.205-.12 1.844.376 4.54.806 5.615 1.503 3.753 4.5 6.658 7.978 6.498 1.65-.076 3.161-.565 4.597-1.414 1.453-.86 2.18-1.768 2.18-2.829 0-.295-.059-.59-.118-.884-1.532 1.945-4.353 3.077-6.626 2.458-2.256-.615-4.018-3.137-4.43-5.438-.395-2.197-.201-4.538.423-6.68.523-1.794.967-2.78 1.17-3.541.378-1.426.34-2.224.163-2.93-.353-1.18-1.12-2.122-2.298-2.77v-.118c.246.049-.045-.123-.118-.177l.059.059-.059-.06c2.947-.53 5.717-1.531 8.368-2.887 5.069-2.652 7.603-5.54 7.603-8.78z" style="font-style:normal;font-variant:normal;font-weight:400;font-stretch:normal;font-size:58.9315px;line-height:1.25;font-family:'Blessed Day';-inkscape-font-specification:'Blessed Day, Normal';font-variant-ligatures:normal;font-variant-caps:normal;font-variant-numeric:normal;font-variant-east-asian:normal;display:inline;opacity:1;fill:#111818;fill-opacity:1;stroke:#111818;stroke-width:1.657;stroke-miterlimit:4;stroke-dasharray:none;stroke-opacity:1"/>
  </g>
</svg>
