<svg xmlns="http://www.w3.org/2000/svg" width="495.82" height="195.62" viewBox="0 0 131.19 51.76">
  <defs>
    <path id="a" d="M61.99 148.92h48.38v13.61H61.99z"/>
  </defs>
  <g aria-label="Recipedia" style="font-style:normal;font-variant:normal;font-weight:400;font-stretch:normal;font-size:58.9315px;line-height:1.25;font-family:'Blessed Day';-inkscape-font-specification:'Blessed Day, Normal';font-variant-ligatures:normal;font-variant-caps:normal;font-variant-numeric:normal;font-variant-east-asian:normal;fill:#ffed00;fill-opacity:1;stroke-width:3.15704">
    <path d="M66.9 100.77c0-3.6-2.24-6.3-6.66-8.25a27.7 27.7 0 0 0-11.2-2.18c-7.3 0-12.79 1.83-16.44 5.48-1.6 1.6-2.48 3.18-2.66 4.72-.11.47-.17.94-.17 1.35 0 1.12.41 2.18 1.3 3.07a6.3 6.3 0 0 0 4.65 1.88c3.83 0 7.84-2.7 9.72-6.24.53-1 .65-1.83.48-2.48-.3-.94-1-1.41-2.19-1.41-1.47 0-2.65.7-3.59 2.06-.53.77-.59 1.35-.12 1.65.24-.88 1.71-1.71 2.65-1.71.53 0 .83.24 1 .7.06.18-.05.48-.23.9a7.96 7.96 0 0 1-6.84 4.35c-.4 0-.94-.06-1.47-.23-1.53-.42-2.3-1.36-2.3-2.71 0-1.71 1.06-3.36 3.18-4.95 2.72-2 6.13-3.25 10.2-3.66 2.3-.23 4.66-.23 7.07.06 6.13.77 9.31 2.95 9.6 6.54.18 2-1 4.07-3.41 6.25a21.4 21.4 0 0 1-12.08 5.36l4.18-7.84c2.42-4.36 4.6-7.25 6.6-8.66-.7-.18-1.47-.3-2.24-.41-.64.17-1.3.41-1.88.7-2.24 1.18-4.54 3.72-6.84 7.55l-3.18 5.83a82.71 82.71 0 0 1-3.48 6.01c-2.89 4.3-6.13 6.66-9.84 6.96-2.6.17-4.6-.36-6.01-1.71a4.78 4.78 0 0 1-1.6-3.66c0-1.82.72-3.35 2.07-4.65A6.12 6.12 0 0 1 30 109.6c1.71.06 3.24 1 4.72 2.83.23-2.65-1.77-4.42-4.54-4.83a6.62 6.62 0 0 0-3.42.35c-4 1.6-6 4.3-6 8.2 0 2 .76 3.7 2.23 5.12.3.77 1.6 1.42 3.77 1.95 1.77.4 3.77.53 5.95.29 2.24-.24 4.13-.77 5.6-1.65 2.77-1.6 5.48-4.54 8.14-8.96.53.12.94.18 1.17.18 1.77.3 2.71.7 2.9 1.35.05.3 0 .6-.13 1-2.06 4.78-3.06 9.26-3.06 13.44 0 3.66.77 6.66 2.24 9.08a8.15 8.15 0 0 0 7.9 4.12 9.15 9.15 0 0 0 4.6-1.41c1.47-.83 2.17-1.77 2.17-2.83 0-.3-.06-.59-.12-.88-1.53 1.94-3.7 2.88-6.48 2.88-2.6 0-4.54-1.23-5.77-3.7-1-1.95-1.48-4.31-1.48-7.14 0-1.94.24-3.89.71-5.83a46.14 46.14 0 0 1 2-5.3c.36-.9.42-1.66.24-2.36a4.62 4.62 0 0 0-2.3-2.77v-.12h.12l-.24-.18.06.06-.06-.06a29.98 29.98 0 0 0 8.37-2.89c5.07-2.65 7.6-5.54 7.6-8.78z" style="font-style:normal;font-variant:normal;font-weight:400;font-stretch:normal;font-size:58.9315px;font-family:'Blessed Day';-inkscape-font-specification:'Blessed Day, Normal';font-variant-ligatures:normal;font-variant-caps:normal;font-variant-numeric:normal;font-variant-east-asian:normal;fill:#ffed00;fill-opacity:1;stroke-width:3.15704" transform="translate(-20.75 -90.34)"/>
    <path d="M68.95 118.92c0-.59-.35-.76-1.06-.59a5 5 0 0 0-1.06.6c-2.12 1.23-3.89 1.76-5.36 1.64-2.07-.17-3-1.23-2.83-3.18.47.47 1.24.65 2.24.6a7.06 7.06 0 0 0 5.18-2.96c.53-.76.89-1.53 1.06-2.41.3-1.71-.59-3.18-2.24-3.6-1.3-.3-2.77.18-4.36 1.42-1.3 1-2.41 2.12-3.3 3.47-1.47 2.18-2.06 4.13-1.82 5.9.3 2.18 1.82 3.24 4.6 3.12 2.59-.12 5.12-.94 7.65-2.42.89-.53 1.36-1.06 1.3-1.59zm-3.89-5.48c-.47 1.12-1.47 2-3 2.71-.65.3-1.36.48-2 .42-.66-.06-1.01-.18-1.07-.48-.06-.4.47-1.3 1.53-2.65 1.06-1.35 2.13-2 3.13-2 1.3 0 1.76.65 1.41 1.94z" style="font-style:normal;font-variant:normal;font-weight:400;font-stretch:normal;font-size:58.9315px;font-family:'Blessed Day';-inkscape-font-specification:'Blessed Day, Normal';font-variant-ligatures:normal;font-variant-caps:normal;font-variant-numeric:normal;font-variant-east-asian:normal;fill:#ffed00;fill-opacity:1;stroke-width:3.15704" transform="translate(-20.75 -90.34)"/>
    <path d="M81.44 118.92c0-.59-.35-.76-1.06-.59-2.65 1.6-4.77 2.36-6.48 2.24-1.89-.11-2.83-1-2.83-2.7 0-1.36.65-2.78 1.88-4.37 1.12-1.35 2.18-2.06 3.19-2.06 1.23 0 1.7.65 1.41 1.94-.18.83-.82 1.6-1.83 2.36 1.42-.18 3.19-1.35 3.72-2.71.76-1.94-.6-4.07-2.9-4.07-1.7 0-3.4.95-5.12 2.77-2.65 2.83-3.83 5.54-3.53 8.08.3 2.18 1.76 3.24 4.53 3.12a15 15 0 0 0 8.67-3.12c.23-.24.35-.53.35-.89z" style="font-style:normal;font-variant:normal;font-weight:400;font-stretch:normal;font-size:58.9315px;font-family:'Blessed Day';-inkscape-font-specification:'Blessed Day, Normal';font-variant-ligatures:normal;font-variant-caps:normal;font-variant-numeric:normal;font-variant-east-asian:normal;fill:#ffed00;fill-opacity:1;stroke-width:3.15704" transform="translate(-20.75 -90.34)"/>
    <path d="M92.28 104.37c0-.53-.3-.83-.82-.83-1.24 0-2.36.83-3.48 2.54a3.45 3.45 0 0 0-.65 1.7c0 .54.3.83.83.83 1.17 0 2.35-.82 3.47-2.53.41-.65.65-1.24.65-1.71zm-3.95 14.55c0-.59-.35-.76-1.06-.59l-2.42 1.36c-1.23.7-2.06.94-2.53.77-.06 0 .53-1.06 1.83-3.19 2.77-4.48 4.12-6.83 4.18-7.13.06-.3-.17-.53-.76-.65-.77-.11-1.36 0-1.71.36a41.8 41.8 0 0 0-3.07 4.77l-1.59 2.77a79.66 79.66 0 0 0-1.94 3.71c-.18 1 .06 1.54.82 1.6 1.65.17 3.54-.3 5.72-1.54 1.7-.94 2.53-1.7 2.53-2.24z" style="font-style:normal;font-variant:normal;font-weight:400;font-stretch:normal;font-size:58.9315px;font-family:'Blessed Day';-inkscape-font-specification:'Blessed Day, Normal';font-variant-ligatures:normal;font-variant-caps:normal;font-variant-numeric:normal;font-variant-east-asian:normal;fill:#ffed00;fill-opacity:1;stroke-width:3.15704" transform="translate(-20.75 -90.34)"/>
    <path d="M102.78 118.92c0-.53-.36-.76-1.06-.59l-2.42 1.36c-1.18.65-2 .94-2.47.82 3.12-2.65 4.6-5.53 4.42-8.66-.12-1.83-.95-2.77-2.54-2.77-1.24 0-2.6.6-4.06 1.77.3-.59.47-1 .53-1.3.06-.35-.18-.59-.71-.64-.77-.12-1.36 0-1.77.4-.53.54-1.53 2.13-3 4.66l-6.43 10.9-2.53 4.3c-.24.54-.3.83-.18 1 .06.07.24.13.53.19.77.06 1.36 0 1.77-.3.24-.18.59-.65 1.06-1.41l5.72-9.55v.3c-.18 2.18.53 3.3 2 3.35.47.12 1 .18 1.53.12 3-.12 5.42-.7 7.13-1.7l1.54-.9c.64-.46 1-.93.94-1.35zm-4.54-5.36c-.18 1.83-1.18 3.54-2.89 5.07-1.23 1.12-2.35 1.65-3.3 1.65-.88 0-1.3-.47-1.3-1.36 0-1.41.71-3 2.07-4.71 1.35-1.77 2.71-2.65 4-2.65 1.07 0 1.54.65 1.42 2z" style="font-style:normal;font-variant:normal;font-weight:400;font-stretch:normal;font-size:58.9315px;font-family:'Blessed Day';-inkscape-font-specification:'Blessed Day, Normal';font-variant-ligatures:normal;font-variant-caps:normal;font-variant-numeric:normal;font-variant-east-asian:normal;fill:#ffed00;fill-opacity:1;stroke-width:3.15704" transform="translate(-20.75 -90.34)"/>
    <path d="M115 118.92c0-.59-.36-.76-1.07-.59a5 5 0 0 0-1.06.6c-2.12 1.23-3.89 1.76-5.36 1.64-2.07-.17-3-1.23-2.83-3.18.47.47 1.24.65 2.24.6a7.06 7.06 0 0 0 5.18-2.96c.53-.76.89-1.53 1.06-2.41.3-1.71-.59-3.18-2.24-3.6-1.3-.3-2.76.18-4.36 1.42-1.3 1-2.41 2.12-3.3 3.47-1.47 2.18-2.06 4.13-1.82 5.9.3 2.18 1.82 3.24 4.6 3.12 2.59-.12 5.12-.94 7.65-2.42.89-.53 1.36-1.06 1.3-1.59zm-3.9-5.48c-.47 1.12-1.47 2-3 2.71-.65.3-1.36.48-2 .42-.66-.06-1-.18-1.07-.48-.06-.4.47-1.3 1.53-2.65 1.06-1.35 2.13-2 3.13-2 1.3 0 1.77.65 1.41 1.94z" style="font-style:normal;font-variant:normal;font-weight:400;font-stretch:normal;font-size:58.9315px;font-family:'Blessed Day';-inkscape-font-specification:'Blessed Day, Normal';font-variant-ligatures:normal;font-variant-caps:normal;font-variant-numeric:normal;font-variant-east-asian:normal;fill:#ffed00;fill-opacity:1;stroke-width:3.15704" transform="translate(-20.75 -90.34)"/>
    <path d="M134.79 102.13c.06-.3-.18-.53-.77-.65-.76-.12-1.35 0-1.7.35a71.79 71.79 0 0 0-3.01 4.72l-3.9 6.48c.3-2.71-.64-4.07-2.76-4.07-1.6 0-3.3.95-5.07 2.77-2.71 2.77-3.89 5.48-3.54 8.08.3 2 1.24 3 2.95 3 1.24 0 2.54-.59 3.9-1.82v.11c-.19 1 .05 1.54.76 1.6 1.7.17 3.65-.3 5.83-1.54 1.65-.94 2.48-1.7 2.48-2.24-.12-.53-.48-.76-1.12-.59l-2.42 1.36c-1.24.7-2.06.94-2.48.77-.05 0 .54-1.06 1.83-3.19l7.37-12.02c1-1.65 1.59-2.7 1.65-3.12zm-10.96 13.14c-.42.94-.71 1.65-1 2.12l-.3.53c-1.12 1.6-2.24 2.36-3.36 2.36-1.3 0-1.94-.83-1.94-2.42 0-1.23.53-2.65 1.59-4.12 1.12-1.53 2.24-2.3 3.47-2.3.89 0 1.42.47 1.6 1.41.17.77.17 1.6-.06 2.42z" style="font-style:normal;font-variant:normal;font-weight:400;font-stretch:normal;font-size:58.9315px;font-family:'Blessed Day';-inkscape-font-specification:'Blessed Day, Normal';font-variant-ligatures:normal;font-variant-caps:normal;font-variant-numeric:normal;font-variant-east-asian:normal;fill:#ffed00;fill-opacity:1;stroke-width:3.15704" transform="translate(-20.75 -90.34)"/>
    <path d="M140.97 104.37c0-.53-.3-.83-.83-.83-1.23 0-2.35.83-3.47 2.54a3.45 3.45 0 0 0-.65 1.7c0 .54.3.83.82.83 1.18 0 2.36-.82 3.48-2.53.41-.65.65-1.24.65-1.71zm-3.95 14.55c0-.59-.35-.76-1.06-.59l-2.42 1.36c-1.24.7-2.06.94-2.53.77-.06 0 .53-1.06 1.83-3.19 2.77-4.48 4.12-6.83 4.18-7.13.06-.3-.18-.53-.77-.65-.76-.11-1.35 0-1.7.36a41.8 41.8 0 0 0-3.07 4.77l-1.6 2.77a79.67 79.67 0 0 0-1.94 3.71c-.17 1 .06 1.54.83 1.6 1.65.17 3.53-.3 5.72-1.54 1.7-.94 2.53-1.7 2.53-2.24z" style="font-style:normal;font-variant:normal;font-weight:400;font-stretch:normal;font-size:58.9315px;font-family:'Blessed Day';-inkscape-font-specification:'Blessed Day, Normal';font-variant-ligatures:normal;font-variant-caps:normal;font-variant-numeric:normal;font-variant-east-asian:normal;fill:#ffed00;fill-opacity:1;stroke-width:3.15704" transform="translate(-20.75 -90.34)"/>
    <path d="M151.94 118.92c0-.59-.36-.76-1.12-.59l-2.42 1.36c-1.24.7-2.06.94-2.47.77-.06 0 .53-1.06 1.82-3.19 2.54-4.18 3.9-6.48 3.95-6.9.06-.35-.18-.58-.7-.64-.83-.18-1.54.12-2.13.77-.23.23-.65.88-1.3 2 .07-2.36-.88-3.54-2.82-3.54-1.6 0-3.3.95-5.07 2.77-2.71 2.77-3.89 5.48-3.54 8.08.3 2 1.24 3 2.95 3 1.18 0 2.42-.59 3.77-1.7-.17 1 .06 1.53.77 1.59 1.7.17 3.65-.3 5.83-1.54 1.65-.94 2.48-1.7 2.48-2.24zm-6.01-3.65c-.06.06-.06.18-.12.3l-1 1.82-.6 1.12c-1 1.18-2 1.77-2.94 1.77-1.3 0-1.94-.83-1.94-2.42 0-1.23.53-2.65 1.59-4.12 1.12-1.53 2.24-2.3 3.47-2.3.89 0 1.42.47 1.6 1.41.17.77.17 1.6-.06 2.42z" style="font-style:normal;font-variant:normal;font-weight:400;font-stretch:normal;font-size:58.9315px;font-family:'Blessed Day';-inkscape-font-specification:'Blessed Day, Normal';font-variant-ligatures:normal;font-variant-caps:normal;font-variant-numeric:normal;font-variant-east-asian:normal;fill:#ffed00;fill-opacity:1;stroke-width:3.15704" transform="translate(-20.75 -90.34)"/>
  </g>
</svg>
